<svg width="180" height="57" viewBox="0 0 180 57" fill="none" xmlns="http://www.w3.org/2000/svg">
<path d="M118.507 56.8393C117.805 56.8393 117.454 56.7131 117.454 56.4607C117.454 56.4147 117.46 56.369 117.471 56.323C117.494 56.2657 117.511 56.2082 117.523 56.1509L121.323 45.0852C121.415 44.8443 121.743 44.7238 122.307 44.7238H123.206C123.781 44.7238 124.11 44.8443 124.19 45.0852L127.99 56.1509C128.025 56.2657 128.042 56.369 128.042 56.4607C128.042 56.7131 127.754 56.8393 127.178 56.8393H126.418C126.165 56.8393 125.952 56.8164 125.779 56.7705C125.607 56.7131 125.497 56.6156 125.451 56.4779L124.76 54.3783H120.684L119.993 56.4779C119.947 56.604 119.855 56.6959 119.717 56.7532C119.578 56.8106 119.406 56.8393 119.198 56.8393H118.507ZM121.427 52.1067H124.017L123.033 49.0434C122.975 48.8598 122.924 48.6763 122.877 48.4927C122.843 48.3091 122.808 48.1256 122.774 47.942H122.705C122.67 48.1256 122.636 48.3091 122.601 48.4927C122.567 48.6763 122.515 48.8598 122.446 49.0434L121.427 52.1067ZM130.275 56.8393C129.584 56.8393 129.239 56.6557 129.239 56.2886V45.2746C129.239 44.9075 129.584 44.7238 130.275 44.7238H131.018C131.271 44.7238 131.49 44.7526 131.674 44.8099C131.87 44.8672 132.031 44.9935 132.158 45.1885L136.044 51.1602C136.171 51.3323 136.28 51.4987 136.372 51.6593C136.476 51.8198 136.574 51.9919 136.666 52.1755L136.735 52.1583C136.723 51.9633 136.712 51.7854 136.7 51.6248C136.7 51.4527 136.7 51.2405 136.7 50.9881V45.2746C136.7 44.9075 137.046 44.7238 137.737 44.7238H138.238C138.929 44.7238 139.274 44.9075 139.274 45.2746V56.2886C139.274 56.6557 138.929 56.8393 138.238 56.8393H137.581C137.328 56.8393 137.103 56.8106 136.908 56.7532C136.723 56.6959 136.568 56.5696 136.441 56.3746L132.469 50.3169C132.353 50.1448 132.244 49.9784 132.14 49.8178C132.037 49.6573 131.939 49.4852 131.847 49.3016L131.778 49.3188C131.801 49.5138 131.812 49.6974 131.812 49.8695C131.812 50.03 131.812 50.2365 131.812 50.489V56.2886C131.812 56.6557 131.467 56.8393 130.776 56.8393H130.275ZM142.603 56.8565C141.912 56.8565 141.567 56.6672 141.567 56.2886V45.2746C141.567 44.8959 141.912 44.7066 142.603 44.7066H143.208C143.899 44.7066 144.244 44.8959 144.244 45.2746V56.2886C144.244 56.6672 143.899 56.8565 143.208 56.8565H142.603ZM152.383 53.9309C152.084 53.9309 151.853 53.822 151.692 53.6039L149.568 49.8178C149.499 49.7031 149.429 49.5941 149.36 49.4909C149.303 49.3761 149.245 49.2615 149.188 49.1467L149.119 49.1639C149.119 49.3016 149.119 49.4392 149.119 49.5769C149.119 49.7146 149.119 49.8579 149.119 50.0071V56.2886C149.119 56.6557 148.773 56.8393 148.082 56.8393H147.581C146.89 56.8393 146.545 56.6557 146.545 56.2886V45.2746C146.545 44.9075 146.89 44.7238 147.581 44.7238H148.497C148.75 44.7238 148.969 44.7583 149.153 44.8271C149.349 44.8959 149.493 45.0164 149.585 45.1885L152.452 50.2825C152.475 50.3284 152.504 50.3742 152.539 50.4202C152.573 50.4661 152.602 50.5177 152.625 50.5751C152.648 50.5177 152.671 50.4661 152.694 50.4202C152.728 50.3742 152.757 50.3284 152.78 50.2825L155.699 45.1885C155.792 45.0164 155.93 44.8959 156.114 44.8271C156.31 44.7583 156.534 44.7238 156.788 44.7238H157.686C158.377 44.7238 158.722 44.9075 158.722 45.2746V56.2886C158.722 56.6557 158.377 56.8393 157.686 56.8393H157.185C156.494 56.8393 156.148 56.6557 156.148 56.2886V50.0071C156.148 49.8579 156.148 49.7146 156.148 49.5769C156.148 49.4392 156.148 49.3016 156.148 49.1639L156.079 49.1467C156.022 49.2615 155.958 49.3761 155.889 49.4909C155.832 49.5941 155.768 49.7031 155.699 49.8178L153.575 53.6039C153.414 53.822 153.183 53.9309 152.884 53.9309H152.383ZM161.931 56.8049C161.47 56.8049 161.24 56.5755 161.24 56.1165V45.4466C161.24 44.9877 161.47 44.7583 161.931 44.7583H167.994C168.339 44.7583 168.512 45.0452 168.512 45.6187V46.1522C168.512 46.7258 168.339 47.0127 167.994 47.0127H163.9V49.5081H167.527C167.873 49.5081 168.046 49.795 168.046 50.3685V50.902C168.046 51.4756 167.873 51.7625 167.527 51.7625H163.9V54.5504H168.011C168.356 54.5504 168.529 54.8373 168.529 55.4109V55.9444C168.529 56.518 168.356 56.8049 168.011 56.8049H161.931ZM173.778 56.9426C172.902 56.9426 172.166 56.8565 171.567 56.6844C170.969 56.5008 170.514 56.3001 170.203 56.0821C169.88 55.864 169.719 55.6462 169.719 55.4281C169.719 55.2445 169.782 55.038 169.909 54.8086C170.036 54.5676 170.186 54.3555 170.358 54.1718C170.531 53.9882 170.675 53.8965 170.79 53.8965C170.848 53.8965 170.911 53.9194 170.98 53.9653C171.061 53.9997 171.159 54.0457 171.274 54.103C171.504 54.2178 171.786 54.3439 172.12 54.4816C172.466 54.6193 172.868 54.6881 173.329 54.6881C173.583 54.6881 173.83 54.6594 174.072 54.6021C174.326 54.5332 174.533 54.4128 174.694 54.2407C174.866 54.057 174.953 53.8048 174.953 53.4835C174.953 53.1393 174.82 52.8639 174.555 52.6574C174.291 52.4509 173.951 52.2673 173.536 52.1067C173.134 51.9461 172.719 51.7625 172.293 51.556C171.993 51.4183 171.706 51.2578 171.429 51.0741C171.153 50.8791 170.899 50.6496 170.669 50.3858C170.45 50.1219 170.278 49.8063 170.151 49.4392C170.024 49.0606 169.961 48.6132 169.961 48.0969C169.961 47.2708 170.162 46.6054 170.566 46.1006C170.969 45.5843 171.481 45.2114 172.103 44.982C172.737 44.7411 173.386 44.6206 174.054 44.6206C174.469 44.6206 174.849 44.6493 175.194 44.7066C175.54 44.7639 175.846 44.8443 176.11 44.9476C176.386 45.0393 176.611 45.1484 176.784 45.2746C177.037 45.4582 177.164 45.6416 177.164 45.8253C177.164 45.9745 177.112 46.1694 177.008 46.4104C176.917 46.6513 176.796 46.8635 176.645 47.0471C176.495 47.2307 176.352 47.3225 176.214 47.3225C176.157 47.3225 176.075 47.2996 175.972 47.2536C175.88 47.2077 175.752 47.1561 175.592 47.0988C175.441 47.0414 175.258 46.9955 175.039 46.9611C174.832 46.9151 174.585 46.8922 174.296 46.8922C173.847 46.8922 173.507 46.9439 173.277 47.0471C173.047 47.1504 172.892 47.2765 172.811 47.4257C172.73 47.5749 172.69 47.7183 172.69 47.856C172.69 48.1657 172.776 48.4239 172.949 48.6304C173.122 48.8254 173.346 48.9918 173.623 49.1295C173.899 49.2671 174.205 49.4048 174.538 49.5425C174.896 49.6917 175.258 49.8579 175.626 50.0416C175.994 50.2137 176.334 50.4317 176.645 50.6955C176.956 50.9593 177.203 51.2922 177.388 51.6937C177.583 52.0952 177.682 52.5886 177.682 53.1737C177.682 53.8736 177.566 54.4644 177.336 54.9463C177.117 55.4281 176.818 55.8183 176.438 56.1165C176.058 56.4034 175.638 56.6156 175.177 56.7532C174.716 56.8794 174.25 56.9426 173.778 56.9426Z" fill="#FF0066"/>
<path d="M93.3482 1.46797C93.3529 1.08743 93.2057 0.720615 92.9392 0.448001C92.6727 0.175369 92.3086 0.0192104 91.9267 0.0137722H88.6033C88.3482 0.0147359 88.0979 0.0846923 87.8795 0.216241C87.661 0.347773 87.4826 0.535941 87.3631 0.760644L81.3643 11.8435L81.0501 12.4493L80.7045 11.8435C80.7045 11.8435 76.2585 3.49524 74.8042 0.784755C74.6821 0.552892 74.499 0.358494 74.2744 0.222385C74.0499 0.0862583 73.7925 0.0135536 73.5296 0.0120392H70.2478C69.8564 0.0174722 69.4832 0.177537 69.2103 0.456984C68.9372 0.736431 68.7866 1.11242 68.7918 1.50237V24.1414C68.7866 24.5369 68.9393 24.9181 69.2161 25.2015C69.493 25.4848 69.8716 25.6469 70.2684 25.6524H72.514C72.9109 25.6469 73.2892 25.4848 73.5661 25.2015C73.843 24.9181 73.9958 24.5369 73.9908 24.1414V9.52885L74.1288 9.49273C74.3373 9.89772 74.5929 10.3618 74.8957 10.885L79.1812 18.7325C79.3374 18.9533 79.5471 19.1312 79.7908 19.2498C80.0345 19.3684 80.3043 19.4236 80.5751 19.4105H81.5854C81.8562 19.4234 82.126 19.3682 82.3696 19.2496C82.6133 19.131 82.823 18.9533 82.9793 18.7325L87.2646 10.885C87.5664 10.3618 87.8222 9.89772 88.0317 9.49273L88.1715 9.52885V24.1775C88.1664 24.557 88.3129 24.9229 88.5784 25.195C88.8441 25.467 89.2071 25.6228 89.588 25.6283H91.9457C92.1345 25.6259 92.3207 25.5863 92.4941 25.5121C92.6675 25.4378 92.8245 25.3304 92.9563 25.1956C93.0879 25.0609 93.1917 24.9015 93.2615 24.7269C93.3315 24.5522 93.3662 24.3656 93.3636 24.1775V1.46797H93.3482Z" fill="white"/>
<path d="M112.303 1.63658C110.578 0.539545 108.566 -0.0250429 106.52 0.0137437H99.2019C99.0164 0.0162064 98.833 0.055048 98.6625 0.128085C98.492 0.201122 98.3376 0.306925 98.2082 0.439403C98.0787 0.571899 97.9768 0.728453 97.9082 0.90022C97.8394 1.07197 97.8054 1.25549 97.808 1.44037V24.1878C97.8054 24.3742 97.8396 24.5594 97.909 24.7325C97.9783 24.9058 98.0812 25.0638 98.2118 25.1974C98.3422 25.3309 98.498 25.4376 98.6699 25.5113C98.8419 25.5849 99.0268 25.6241 99.214 25.6266H101.769C101.956 25.6241 102.14 25.5849 102.312 25.5113C102.484 25.4376 102.64 25.3309 102.771 25.1974C102.901 25.0638 103.004 24.9058 103.073 24.7325C103.143 24.5594 103.177 24.3742 103.174 24.1878V15.6382H106.867C107.962 15.6076 109.044 15.4026 110.073 15.0307C111.552 14.522 112.82 13.5385 113.678 12.2343C114.535 10.9302 114.934 9.37936 114.811 7.82511C114.811 4.78019 113.975 2.71504 112.303 1.62969V1.63658ZM108.418 10.2448C107.801 10.7051 107.046 10.944 106.275 10.9228H103.166V4.69297H106.275C107.048 4.66988 107.805 4.913 108.418 5.38135C108.745 5.69353 108.994 6.07635 109.148 6.5001C109.302 6.92387 109.356 7.37721 109.306 7.82511C109.358 8.2705 109.304 8.72174 109.15 9.14297C108.996 9.56421 108.746 9.94383 108.418 10.2516" fill="white"/>
<path d="M153.483 1.47311L153.414 15.7776C153.027 15.0383 152.599 14.3212 152.132 13.6298L143.933 0.671146C143.808 0.471087 143.634 0.305876 143.428 0.190917C143.221 0.075941 142.989 0.0149681 142.753 0.0137634H139.528C139.15 0.0192016 138.79 0.173966 138.526 0.444051C138.263 0.714136 138.117 1.07748 138.122 1.45421V24.1844C138.117 24.5623 138.262 24.9266 138.526 25.1982C138.79 25.4698 139.151 25.6262 139.53 25.6334H141.286C141.435 25.6334 141.573 25.6334 141.706 25.618H142C142.38 25.6124 142.742 25.457 143.008 25.1858C143.273 24.9144 143.419 24.5492 143.415 24.1706V12.2015C143.415 11.1092 143.391 10.2844 143.344 9.72678L143.485 9.69066C143.871 10.4299 144.299 11.1469 144.765 11.8384L153.137 24.9623C153.263 25.1626 153.438 25.328 153.646 25.4429C153.853 25.5579 154.086 25.6186 154.324 25.6197H157.361C157.549 25.6173 157.735 25.5777 157.908 25.5037C158.081 25.4295 158.238 25.3219 158.37 25.1874C158.501 25.0528 158.605 24.8938 158.675 24.7194C158.745 24.5449 158.779 24.3584 158.777 24.1706V1.47999C158.782 1.09643 158.634 0.726544 158.365 0.451623C158.097 0.176685 157.73 0.0192016 157.345 0.0137634H154.91C154.526 0.0187542 154.159 0.175136 153.891 0.44868C153.623 0.722207 153.474 1.09059 153.477 1.47311" fill="white"/>
<path d="M178.217 0.0137607H176.024C175.773 0.0150858 175.526 0.0835106 175.312 0.211858C175.096 0.340206 174.918 0.523779 174.799 0.743458L170.491 8.4877L166.227 0.743458C166.106 0.519873 165.926 0.332806 165.708 0.201997C165.489 0.0711714 165.24 0.0014215 164.985 0H162.207C161.95 0.00690614 161.698 0.0812906 161.479 0.215645C161.259 0.349999 161.079 0.539595 160.957 0.765365C160.834 0.991119 160.774 1.24504 160.781 1.50162C160.788 1.75819 160.863 2.00839 160.998 2.22691L167.677 13.3235V24.1655C167.672 24.5455 167.819 24.9118 168.085 25.1841C168.351 25.4565 168.714 25.6124 169.096 25.6179H171.686C171.875 25.6155 172.062 25.576 172.235 25.5016C172.409 25.4273 172.566 25.3195 172.698 25.1848C172.83 25.0499 172.933 24.8905 173.004 24.7155C173.073 24.5406 173.108 24.3537 173.106 24.1655V13.4388L179.789 2.19765C179.92 1.98085 179.993 1.73319 180 1.47968C180.005 1.22615 179.943 0.975682 179.82 0.753439C179.697 0.531197 179.518 0.345008 179.3 0.213648C179.083 0.0822887 178.834 0.0103808 178.58 0.00514738L178.217 0.0137607Z" fill="white"/>
<path d="M61.1728 31.3711H49.2547C49.0708 31.3735 48.889 31.412 48.7201 31.4845C48.551 31.5569 48.398 31.6619 48.2698 31.7932C48.1415 31.9245 48.0403 32.0799 47.9722 32.2501C47.9042 32.4205 47.8705 32.6024 47.8729 32.7857C47.8729 32.7857 47.8729 32.796 47.8729 32.8012V54.9858C47.8705 55.1707 47.9045 55.3543 47.9732 55.526C48.0418 55.6978 48.1439 55.8544 48.2733 55.9869C48.4028 56.1192 48.5571 56.2251 48.7275 56.298C48.898 56.3712 49.0813 56.4101 49.2668 56.4125H61.1486C61.3386 56.4101 61.5265 56.3703 61.7012 56.2955C61.8758 56.2208 62.034 56.1124 62.1665 55.9767C62.2991 55.8411 62.4038 55.6807 62.4741 55.5047C62.5446 55.3288 62.5797 55.1409 62.5771 54.9514V53.1995C62.5822 52.8171 62.4347 52.4485 62.1674 52.1742C61.8998 51.9 61.5341 51.7425 61.1503 51.7367L53.2395 51.7246V45.9319H60.1347C60.5256 45.9264 60.8985 45.7667 61.1712 45.4876C61.4438 45.2085 61.5941 44.8328 61.5891 44.4433V42.6811C61.5917 42.4949 61.5573 42.3101 61.488 42.1369C61.4189 41.964 61.3162 41.8062 61.1858 41.6728C61.0554 41.5394 60.8997 41.4329 60.728 41.3592C60.5563 41.2857 60.3717 41.2465 60.1848 41.2441H53.2395V36.0589H61.1331C61.3253 36.0561 61.515 36.0159 61.6915 35.9402C61.8679 35.8644 62.0276 35.7546 62.1615 35.6175C62.2955 35.4801 62.4011 35.3179 62.4721 35.1401C62.543 34.9621 62.5781 34.772 62.5753 34.5806V32.8184C62.5779 32.6315 62.5434 32.446 62.4739 32.2723C62.4043 32.0987 62.3014 31.9403 62.1705 31.8065C62.0395 31.6726 61.8836 31.5655 61.7112 31.4917C61.5388 31.4179 61.3535 31.3786 61.1659 31.3762" fill="white"/>
<path d="M38.9101 31.3711C38.5303 31.3766 38.1679 31.532 37.9031 31.8034C37.6382 32.0747 37.4922 32.4398 37.4972 32.8184V41.3009H28.0888V32.8184C28.0939 32.4411 27.9486 32.0775 27.6845 31.807C27.4206 31.5366 27.0597 31.3817 26.6811 31.3762H24.0902C23.9027 31.3786 23.7175 31.4179 23.5451 31.4917C23.3727 31.5655 23.2166 31.6726 23.0858 31.8065C22.9549 31.9403 22.8518 32.0987 22.7822 32.2723C22.7127 32.446 22.6784 32.6315 22.6808 32.8184V54.9755C22.6758 55.3531 22.8214 55.7174 23.0857 55.9881C23.3499 56.2588 23.7113 56.4139 24.0902 56.4194H26.6708C27.0499 56.4139 27.4111 56.2588 27.6753 55.9881C27.9396 55.7174 28.0852 55.3531 28.0802 54.9755V46.0008H37.4972V54.9789C37.4922 55.3551 37.6371 55.7181 37.9005 55.9879C38.1638 56.2576 38.5239 56.4122 38.9015 56.4177H41.4924C41.6789 56.4152 41.8631 56.3762 42.0342 56.3029C42.2056 56.2294 42.3609 56.123 42.4909 55.99C42.621 55.8568 42.7234 55.6995 42.7925 55.5269C42.8616 55.3543 42.8956 55.17 42.8932 54.9841V32.8184C42.8982 32.4398 42.7523 32.0747 42.4875 31.8034C42.2225 31.532 41.8603 31.3766 41.4803 31.3711H38.9101Z" fill="white"/>
<path d="M9.49839 56.4125H1.30602C1.13227 56.4103 0.960598 56.374 0.800937 56.3056C0.641274 56.2373 0.496704 56.1382 0.375447 56.0143C0.254188 55.8902 0.158671 55.7437 0.0942811 55.5828C0.0298911 55.4221 -0.00214527 55.2502 0.000137865 55.077V1.35095C-0.0023742 1.17769 0.0294667 1.00563 0.093754 0.844617C0.158041 0.683606 0.253533 0.536792 0.374813 0.412592C0.496094 0.288392 0.640738 0.189282 0.800513 0.120858C0.96029 0.0524158 1.13212 0.0160007 1.30602 0.0137634H9.49839C9.67229 0.0160007 9.84402 0.0524158 10.0038 0.120858C10.1636 0.189282 10.3082 0.288392 10.4295 0.412592C10.5508 0.536792 10.6464 0.683606 10.7107 0.844617C10.7749 1.00563 10.8067 1.17769 10.8042 1.35095V55.077C10.8064 55.2502 10.7745 55.4221 10.7101 55.5828C10.6457 55.7437 10.5502 55.8902 10.429 56.0143C10.3077 56.1382 10.163 56.2373 10.0034 56.3056C9.8437 56.374 9.67214 56.4103 9.49839 56.4125Z" fill="#FF0066"/>
<path d="M24.4132 22.5289C22.5431 20.4477 21.6082 17.2072 21.6082 12.8073C21.6082 4.34136 25.4871 0.108421 33.2447 0.108421C34.4395 0.11188 35.6306 0.237561 36.7994 0.483553C37.8092 0.668296 38.7828 1.01223 39.6839 1.50239C39.8845 1.62029 40.0577 1.77941 40.1918 1.96923C40.3258 2.15903 40.4177 2.37514 40.4612 2.60312C40.5049 2.83111 40.4994 3.06574 40.4448 3.29139C40.3904 3.51702 40.2881 3.72848 40.1451 3.91169C39.8845 4.4161 39.575 4.89393 39.221 5.33837C39.0265 5.56815 38.7626 5.72902 38.4686 5.79696C38.1748 5.86489 37.8667 5.83622 37.5905 5.71524C36.9561 5.46369 36.3078 5.24822 35.6491 5.06988C34.825 4.89047 33.9828 4.80672 33.1393 4.82031C32.2752 4.75612 31.4085 4.90484 30.6156 5.25328C29.8228 5.60174 29.1283 6.13921 28.5932 6.81834C27.4795 8.62239 26.9618 10.729 27.1129 12.8416C27.1129 18.2638 29.0988 20.9748 33.0703 20.9748C33.9869 20.9903 34.9015 20.8821 35.789 20.653C36.559 20.4598 37.306 20.1846 38.0171 19.8321C39.1519 19.2315 39.9879 20.1763 40.3904 21.1022C40.5802 21.3526 40.712 21.6417 40.7763 21.9489C40.8405 22.2563 40.8357 22.5738 40.7619 22.8789C40.6883 23.184 40.5476 23.469 40.3501 23.7135C40.1527 23.9579 39.9033 24.1558 39.62 24.2928C38.6626 24.7721 37.6421 25.1144 36.5887 25.3099C35.428 25.5288 34.25 25.6441 33.0685 25.6541C31.485 25.7844 29.8916 25.5729 28.3973 25.0342C26.9031 24.4955 25.543 23.6421 24.4098 22.5323" fill="white"/>
<path d="M45.7173 22.3499C43.832 19.5484 42.8251 16.2517 42.8251 12.8787C42.8251 9.50573 43.832 6.20893 45.7173 3.40746C47.9515 1.2896 50.9174 0.108482 54.0012 0.108482C57.0851 0.108482 60.0509 1.2896 62.2852 3.40746C64.1591 6.21327 65.159 9.50839 65.159 12.8787C65.159 16.249 64.1591 19.5441 62.2852 22.3499C60.0511 24.4682 57.0852 25.6494 54.0012 25.6494C50.9174 25.6494 47.9513 24.4682 45.7173 22.3499ZM58.2261 18.908C59.1667 17.0384 59.6564 14.976 59.6564 12.8847C59.6564 10.7934 59.1667 8.73092 58.2261 6.86138C57.7243 6.22248 57.083 5.7058 56.351 5.35046C55.619 4.99512 54.8154 4.81046 54.0012 4.81046C53.187 4.81046 52.3833 4.99512 51.6513 5.35046C50.9194 5.7058 50.2781 6.22248 49.7763 6.86138C48.8244 8.72755 48.3282 10.7913 48.3282 12.8847C48.3282 14.978 48.8244 17.0418 49.7763 18.908C50.2748 19.552 50.9149 20.0732 51.6473 20.4321C52.3798 20.7909 53.1851 20.9774 54.0012 20.9774C54.8173 20.9774 55.6228 20.7909 56.3551 20.4321C57.0876 20.0732 57.7276 19.552 58.2261 18.908Z" fill="white"/>
<path d="M116.321 25.63C116.093 25.625 115.87 25.5665 115.67 25.4591C115.469 25.3517 115.297 25.1987 115.167 25.0124C115.038 24.8261 114.954 24.6119 114.923 24.3871C114.893 24.1626 114.916 23.9338 114.991 23.7198L122.579 0.991242C122.67 0.709145 122.848 0.462878 123.087 0.287393C123.327 0.111909 123.616 0.0161555 123.914 0.0137634H127.306C127.603 0.0160351 127.892 0.111547 128.132 0.286705C128.372 0.461863 128.55 0.707734 128.641 0.989521L136.253 23.7198C136.328 23.9335 136.351 24.1619 136.32 24.3863C136.289 24.6105 136.206 24.8243 136.076 25.0101C135.946 25.196 135.774 25.3486 135.574 25.4555C135.374 25.5624 135.151 25.6204 134.923 25.6248H132.414C132.114 25.6226 131.823 25.5254 131.583 25.3471C131.342 25.169 131.165 24.9189 131.077 24.6336L129.736 20.4345H121.343L120.015 24.6336C119.928 24.9203 119.751 25.1715 119.51 25.351C119.269 25.5305 118.977 25.629 118.677 25.6317H116.317L116.321 25.63ZM128.206 15.633L126.18 9.15369C125.948 8.39033 125.769 7.61171 125.646 6.82353H125.503C125.479 6.96809 125.425 7.29165 125.344 7.789C125.268 8.25574 125.143 8.7132 124.971 9.15369L122.872 15.633H128.206Z" fill="white"/>
<path d="M67.7172 56.4142C67.5298 56.4118 67.345 56.3726 67.1728 56.2987C67.0008 56.2251 66.8448 56.1182 66.714 55.9845C66.5833 55.8508 66.4802 55.6926 66.4109 55.5191C66.3415 55.3458 66.3071 55.1605 66.3097 54.9738V32.7822C66.3073 32.5991 66.3411 32.4174 66.4093 32.2474C66.4776 32.0775 66.5788 31.9224 66.7071 31.7915C66.8355 31.6603 66.9883 31.5559 67.1572 31.4838C67.3262 31.4115 67.5075 31.3733 67.6913 31.3711H74.5002C80.2843 31.3711 83.1764 33.6134 83.1764 38.0982C83.2038 39.3493 82.8185 40.5748 82.0796 41.5866C81.3235 42.5942 80.2877 43.359 79.1 43.7859V43.9288C79.6571 44.196 80.1279 44.6134 80.4594 45.1334C80.9315 45.7788 81.3182 46.4821 81.6098 47.2261L84.4233 54.4162C84.5124 54.6348 84.547 54.8717 84.5236 55.1065C84.5005 55.3414 84.4202 55.567 84.2901 55.764C84.1599 55.9613 83.9835 56.1239 83.7763 56.238C83.569 56.3521 83.337 56.4144 83.1002 56.4194H80.5216C80.2421 56.4183 79.9696 56.333 79.7398 56.1745C79.5101 56.0158 79.3339 55.7917 79.2348 55.5314L76.5575 48.7629C76.272 48.1157 75.8364 47.5452 75.2863 47.0988C74.6016 46.7217 73.8207 46.5536 73.0406 46.6152H71.6815V54.9617C71.684 55.1504 71.6495 55.3378 71.5796 55.513C71.5096 55.6883 71.4056 55.8482 71.2737 55.9833C71.1415 56.1186 70.9842 56.2265 70.8102 56.301C70.6363 56.3755 70.4492 56.4152 70.2599 56.4177L67.7172 56.4142ZM74.9855 41.8533C75.3458 41.8513 75.7013 41.77 76.0266 41.6153C76.3516 41.4606 76.6385 41.2364 76.8665 40.9584C77.4018 40.3587 77.6884 39.5786 77.668 38.7763C77.6858 38.4089 77.6251 38.0418 77.4901 37.6993C77.3548 37.357 77.1482 37.0472 76.8838 36.7903C76.292 36.278 75.5231 36.0157 74.7403 36.0589H71.6744V41.8533H74.9855Z" fill="white"/>
<path d="M89.2702 53.3991C87.3847 50.5976 86.3782 47.301 86.3782 43.9279C86.3782 40.5551 87.3847 37.2582 89.2702 34.4567C91.5042 32.3384 94.4701 31.1572 97.5541 31.1572C100.638 31.1572 103.604 32.3384 105.838 34.4567C107.713 37.2622 108.713 40.5575 108.713 43.9279C108.713 47.2984 107.713 50.5937 105.838 53.3991C103.604 55.5178 100.638 56.6994 97.5541 56.6994C94.4701 56.6994 91.504 55.5178 89.2702 53.3991ZM101.781 49.9573C102.72 48.0887 103.208 46.0278 103.208 43.9383C103.208 41.8487 102.72 39.7879 101.781 37.9193C101.279 37.2806 100.637 36.7642 99.9054 36.4091C99.1736 36.0539 98.3699 35.8694 97.5558 35.8694C96.7416 35.8694 95.9382 36.0539 95.2064 36.4091C94.4744 36.7642 93.8331 37.2806 93.3311 37.9193C92.3804 39.7842 91.8849 41.8465 91.8849 43.9383C91.8849 46.0301 92.3804 48.0923 93.3311 49.9573C93.8293 50.6014 94.4692 51.1232 95.2017 51.482C95.9341 51.841 96.7395 52.0277 97.5558 52.0277C98.3721 52.0277 99.1774 51.841 99.9099 51.482C100.642 51.1232 101.283 50.6014 101.781 49.9573Z" fill="white"/>
</svg>
