<svg width="62" height="56" viewBox="0 0 62 56" fill="none" xmlns="http://www.w3.org/2000/svg">
<rect x="2" y="2" width="58" height="52" rx="14" stroke="#FF0066" stroke-width="4"/>
<path d="M37.8702 31.8679H36.4248L35.9125 31.4048C37.7055 29.4494 38.785 26.9108 38.785 24.1492C38.785 17.9914 33.4608 13 26.8925 13C20.3242 13 15 17.9914 15 24.1492C15 30.307 20.3242 35.2985 26.8925 35.2985C29.8382 35.2985 32.546 34.2865 34.6318 32.6055L35.1258 33.0858V34.4408L44.2739 43L47 40.4443L37.8702 31.8679ZM26.8925 31.8679C22.3368 31.8679 18.6592 28.4202 18.6592 24.1492C18.6592 19.8782 22.3368 16.4305 26.8925 16.4305C31.4483 16.4305 35.1258 19.8782 35.1258 24.1492C35.1258 28.4202 31.4483 31.8679 26.8925 31.8679Z" fill="white"/>
</svg>
